HIERARCHY
ROOT Hips
{
  OFFSET 5.84602e-005 68.8428 3.50346
  CHANNELS 6 Xposition Yposition Zposition Zrotation Xrotation Yrotation
  JOINT Spine
  {
    OFFSET 0 8.597 -4.6522
    CHANNELS 3 Zrotation Xrotation Yrotation
    JOINT Spine1
    {
      OFFSET 0 7.8454 0.4098
      CHANNELS 3 Zrotation Xrotation Yrotation
      JOINT Spine2
      {
        OFFSET 0 9.7078 -2.1609
        CHANNELS 3 Zrotation Xrotation Yrotation
        JOINT Neck
        {
          OFFSET 0 21.8761 -0.4549
          CHANNELS 3 Zrotation Xrotation Yrotation
          JOINT Head
          {
            OFFSET 0 12.3537 3.3602
            CHANNELS 3 Zrotation Xrotation Yrotation
            End Site
            {
              OFFSET 0.0001 18.9506 0.5657
            }
          }
        }
        JOINT LeftShoulder
        {
          OFFSET 2.2086 21.1115 7.2329
          CHANNELS 3 Zrotation Xrotation Yrotation
          JOINT LeftArm
          {
            OFFSET 13.1193 3.0282 -4.8998
            CHANNELS 3 Zrotation Xrotation Yrotation
            JOINT LeftForeArm
            {
              OFFSET 27.4081 -0.0973053 -0.2375
              CHANNELS 3 Zrotation Xrotation Yrotation
              JOINT LeftHand
              {
                OFFSET 22.8641 0.0662994 -0.1369
                CHANNELS 3 Zrotation Xrotation Yrotation
                JOINT LeftHandIndex1
                {
                  OFFSET 8.8614 0.775009 2.4612
                  CHANNELS 3 Zrotation Xrotation Yrotation
                  JOINT LeftHandIndex2
                  {
                    OFFSET 3.3146 -0.808304 0.5841
                    CHANNELS 3 Zrotation Xrotation Yrotation
                    JOINT LeftHandIndex3
                    {
                      OFFSET 2.2628 -0.552002 0.3989
                      CHANNELS 3 Zrotation Xrotation Yrotation
                      End Site
                      {
                        OFFSET 1.6102 -0.4807 0.2612
                      }
                    }
                  }
                }
                JOINT LeftHandMiddle1
                {
                  OFFSET 8.9937 0.895004 0.2143
                  CHANNELS 3 Zrotation Xrotation Yrotation
                  JOINT LeftHandMiddle2
                  {
                    OFFSET 4.0984 0.0113983 -0.0242
                    CHANNELS 3 Zrotation Xrotation Yrotation
                    JOINT LeftHandMiddle3
                    {
                      OFFSET 2.2716 0.00689697 -0.0138001
                      CHANNELS 3 Zrotation Xrotation Yrotation
                      End Site
                      {
                        OFFSET 2.0404 -0.1441 0.0027
                      }
                    }
                  }
                }
                JOINT LeftHandRing1
                {
                  OFFSET 8.5234 0.597198 -2.0164
                  CHANNELS 3 Zrotation Xrotation Yrotation
                  JOINT LeftHandRing2
                  {
                    OFFSET 3.7188 -0.188293 -0.2328
                    CHANNELS 3 Zrotation Xrotation Yrotation
                    JOINT LeftHandRing3
                    {
                      OFFSET 2.1191 -0.106598 -0.1332
                      CHANNELS 3 Zrotation Xrotation Yrotation
                      End Site
                      {
                        OFFSET 1.8737 -0.2304 -0.0886
                      }
                    }
                  }
                }
                JOINT LeftHandPinky1
                {
                  OFFSET 7.9094 -0.601089 -3.4825
                  CHANNELS 3 Zrotation Xrotation Yrotation
                  JOINT LeftHandPinky2
                  {
                    OFFSET 2.2874 -0.477005 -0.6314
                    CHANNELS 3 Zrotation Xrotation Yrotation
                    JOINT LeftHandPinky3
                    {
                      OFFSET 1.6774 -0.349396 -0.4633
                      CHANNELS 3 Zrotation Xrotation Yrotation
                      End Site
                      {
                        OFFSET 1.4888 -0.4091 -0.3416
                      }
                    }
                  }
                }
                JOINT LeftHandThumb1
                {
                  OFFSET 1.833 -1.3875 1.3896
                  CHANNELS 3 Zrotation Xrotation Yrotation
                  JOINT LeftHandThumb2
                  {
                    OFFSET 3.4129 -1.121 2.5732
                    CHANNELS 3 Zrotation Xrotation Yrotation
                    JOINT LeftHandThumb3
                    {
                      OFFSET 2.2474 -0.804199 1.6192
                      CHANNELS 3 Zrotation Xrotation Yrotation
                      End Site
                      {
                        OFFSET 1.6527 -0.5689 1.1317
                      }
                    }
                  }
                }
              }
            }
          }
        }
        JOINT RightShoulder
        {
          OFFSET -2.2086 21.1115 7.2329
          CHANNELS 3 Zrotation Xrotation Yrotation
          JOINT RightArm
          {
            OFFSET -13.1216 3.0287 -4.9007
            CHANNELS 3 Zrotation Xrotation Yrotation
            JOINT RightForeArm
            {
              OFFSET -27.4081 -0.0973053 -0.2375
              CHANNELS 3 Zrotation Xrotation Yrotation
              JOINT RightHand
              {
                OFFSET -22.8641 0.0664063 -0.1369
                CHANNELS 3 Zrotation Xrotation Yrotation
                JOINT RightHandIndex1
                {
                  OFFSET -8.8614 0.774994 2.4612
                  CHANNELS 3 Zrotation Xrotation Yrotation
                  JOINT RightHandIndex2
                  {
                    OFFSET -3.3146 -0.808304 0.5841
                    CHANNELS 3 Zrotation Xrotation Yrotation
                    JOINT RightHandIndex3
                    {
                      OFFSET -2.2628 -0.552002 0.3989
                      CHANNELS 3 Zrotation Xrotation Yrotation
                      End Site
                      {
                        OFFSET -1.6102 -0.4807 0.2612
                      }
                    }
                  }
                }
                JOINT RightHandMiddle1
                {
                  OFFSET -8.9937 0.894989 0.2143
                  CHANNELS 3 Zrotation Xrotation Yrotation
                  JOINT RightHandMiddle2
                  {
                    OFFSET -4.0984 0.0113983 -0.0242
                    CHANNELS 3 Zrotation Xrotation Yrotation
                    JOINT RightHandMiddle3
                    {
                      OFFSET -2.2716 0.00691223 -0.0138001
                      CHANNELS 3 Zrotation Xrotation Yrotation
                      End Site
                      {
                        OFFSET -2.0404 -0.1441 0.0027
                      }
                    }
                  }
                }
                JOINT RightHandRing1
                {
                  OFFSET -8.5234 0.597198 -2.0164
                  CHANNELS 3 Zrotation Xrotation Yrotation
                  JOINT RightHandRing2
                  {
                    OFFSET -3.7188 -0.188309 -0.2328
                    CHANNELS 3 Zrotation Xrotation Yrotation
                    JOINT RightHandRing3
                    {
                      OFFSET -2.1191 -0.106598 -0.1332
                      CHANNELS 3 Zrotation Xrotation Yrotation
                      End Site
                      {
                        OFFSET -1.8737 -0.2304 -0.0886
                      }
                    }
                  }
                }
                JOINT RightHandPinky1
                {
                  OFFSET -7.9094 -0.601105 -3.4825
                  CHANNELS 3 Zrotation Xrotation Yrotation
                  JOINT RightHandPinky2
                  {
                    OFFSET -2.2874 -0.477005 -0.6314
                    CHANNELS 3 Zrotation Xrotation Yrotation
                    JOINT RightHandPinky3
                    {
                      OFFSET -1.6774 -0.349396 -0.4633
                      CHANNELS 3 Zrotation Xrotation Yrotation
                      End Site
                      {
                        OFFSET -1.4888 -0.4091 -0.3416
                      }
                    }
                  }
                }
                JOINT RightHandThumb1
                {
                  OFFSET -1.833 -1.38751 1.3896
                  CHANNELS 3 Zrotation Xrotation Yrotation
                  JOINT RightHandThumb2
                  {
                    OFFSET -3.41299 -1.12099 2.5732
                    CHANNELS 3 Zrotation Xrotation Yrotation
                    JOINT RightHandThumb3
                    {
                      OFFSET -2.24741 -0.804108 1.6192
                      CHANNELS 3 Zrotation Xrotation Yrotation
                      End Site
                      {
                        OFFSET -1.6527 -0.5689 1.1317
                      }
                    }
                  }
                }
              }
            }
          }
        }
      }
    }
  }
  JOINT RightUpLeg
  {
    OFFSET -9.1966 3.8861 -0.7581
    CHANNELS 3 Zrotation Xrotation Yrotation
    JOINT RightLeg
    {
      OFFSET -0.7359 -41.0265 0
      CHANNELS 3 Zrotation Xrotation Yrotation
      JOINT RightFoot
      {
        OFFSET 0 -40.2855 0
        CHANNELS 3 Zrotation Xrotation Yrotation
        JOINT RightToeBase
        {
          OFFSET 0 -5.6122 11.7359
          CHANNELS 3 Zrotation Xrotation Yrotation
          End Site
          {
            OFFSET 0 0 7.8731
          }
        }
      }
    }
  }
  JOINT LeftUpLeg
  {
    OFFSET 9.1965 3.8864 -0.7581
    CHANNELS 3 Zrotation Xrotation Yrotation
    JOINT LeftLeg
    {
      OFFSET 0.7359 -41.0268 0
      CHANNELS 3 Zrotation Xrotation Yrotation
      JOINT LeftFoot
      {
        OFFSET 0 -40.2855 0
        CHANNELS 3 Zrotation Xrotation Yrotation
        JOINT LeftToeBase
        {
          OFFSET 0 -5.6122 11.7359
          CHANNELS 3 Zrotation Xrotation Yrotation
          End Site
          {
            OFFSET 0 0 7.8731
          }
        }
      }
    }
  }
}
MOTION
Frames:	7
Frame Time:	0.0333333
5.84602e-005 68.8428 3.50346 0 0 -0 0 0 -0 0 0 -0 0 0 -0 0 0 -0 0 0 -0 0 0 -0 0 0 -0 0 0 -0 0 0 -0 0 0 -0 0 0 -0 0 0 -0 0 0 -0 -0.0146107 -8.87603e-005 -2.63497e-007 2.99804e-018 -2.42657e-020 -1.42182e-022 0 0 -0 -0.0187562 -0.001176 5.858e-005 5.06224e-018 3.88251e-019 1.21329e-020 0 0 -0 -0.012269 -0.00324817 0.000675346 -1.74678e-018 3.88251e-019 -0 0 0 -0 0 0 -0 0 0 -0 0 0 -0 0 0 -0 0 0 -0 0 0 -0 0 0 -0 0 0 -0 0 0 -0 0 0 -0 0.0149955 -9.10982e-005 2.64101e-007 -9.69331e-018 1.21329e-020 -4.7394e-023 0 0 -0 0.0189956 -0.00119102 -5.96516e-005 -5.41541e-019 0 2.42657e-020 0 0 -0 0.0122698 -0.00324857 -0.000673756 -2.00796e-019 0 -1.94126e-019 0 0 -0 0 0 -0 0 0 -0 3.39842 1.33031 -0.0637918 -5.65207e-008 0.834868 -0.000436188 -3.39935 -2.16518 -0.0642563 -8.89002e-024 -1.18485e-023 -1.48106e-024 -3.39844 1.35642 0.0640283 -3.18788e-007 0.782166 -0.000588827 3.39931 -2.13858 0.0634662 1.1399e-023 0 -0 
0.924967 32.5145 13.9781 0 34.5509 -0 0.376811 0.0412714 -0.499754 0.753967 0.0792463 -0.999768 0.753967 0.0792446 -0.999768 -8.29539e-005 0.20842 0.000102625 -8.10572e-007 0.195612 1.1031e-006 -22.955 31.8451 -5.46705 -91.2676 -51.5706 -62.7402 -99.8127 -0.815092 -15.5827 163.84 27.9426 -130.543 -3.83464e-007 4.1777e-007 1.51489e-007 -6.97207e-007 7.59582e-007 2.75434e-007 1.74302e-007 -1.89895e-007 -6.88585e-008 -3.83464e-007 4.1777e-007 1.51489e-007 -0.0146278 -8.55146e-005 -4.18819e-006 8.77862e-007 2.35125e-007 3.19194e-007 -3.83464e-007 4.1777e-007 1.51489e-007 -0.0187082 -0.00116966 5.84721e-005 8.42642e-007 2.72993e-007 3.32977e-007 -3.83464e-007 4.1777e-007 1.51489e-007 -0.0122561 -0.00324001 0.000669291 1.74299e-007 -1.89889e-007 -6.88837e-008 -3.83464e-007 4.1777e-007 1.51489e-007 -6.97207e-007 7.59582e-007 2.75434e-007 1.74302e-007 -1.89895e-007 -6.88585e-008 22.0401 29.7074 5.67485 91.2723 -51.6759 62.8594 99.3303 -0.940877 15.7239 -167.702 29.2191 138.139 1.57544e-007 1.70811e-007 -6.05206e-008 5.25147e-008 5.69368e-008 -2.01736e-008 1.40039e-007 1.51832e-007 -5.37961e-008 1.57544e-007 1.70811e-007 -6.05206e-008 0.0149515 -9.1401e-005 5.09079e-006 1.40039e-007 1.51825e-007 -5.3816e-008 1.57544e-007 1.70811e-007 -6.05206e-008 0.0190426 -0.00119082 -5.75893e-005 1.40038e-007 1.51823e-007 -5.38228e-008 1.57544e-007 1.70811e-007 -6.05206e-008 0.0123412 -0.00326388 -0.000681095 1.40037e-007 1.51827e-007 -5.38165e-008 1.57544e-007 1.70811e-007 -6.05206e-008 5.25147e-008 5.69368e-008 -2.01736e-008 1.40039e-007 1.51832e-007 -5.37961e-008 -152.344 -57.527 -146.125 -171.09 71.8077 168.508 1.96406 -9.57042 -14.1459 8.10936e-007 2.29896e-007 9.63601e-008 153.978 -57.787 149.395 171.661 70.8605 -169.004 -0.0849683 -10.862 15.5316 1.0408e-006 5.82086e-007 -4.20136e-009 
0.87033 34.5635 14.2024 0 30.6723 -0 0.352895 0.496597 -0.474906 0.709934 0.990198 -0.952915 0.709933 0.990208 -0.952915 -0.000110785 0.298237 0.000127396 4.41843e-007 0.280397 1.53795e-007 -21.7987 29.9857 -5.04593 -82.0649 -51.0609 -56.4018 -93.2984 -0.941756 -14.7358 156.251 34.2794 -129.195 1.44872e-007 -1.45019e-007 -5.9254e-008 -2.89744e-007 2.90037e-007 1.18508e-007 1.44872e-007 -1.45019e-007 -5.9254e-008 1.44872e-007 -1.45019e-007 -5.9254e-008 -0.0145669 -9.06434e-005 7.399e-006 1.44871e-007 -1.45011e-007 -5.92726e-008 1.44872e-007 -1.45019e-007 -5.9254e-008 -0.0187805 -0.00117803 6.03742e-005 1.44871e-007 -1.45009e-007 -5.92793e-008 1.44872e-007 -1.45019e-007 -5.9254e-008 -0.012249 -0.00324108 0.000674336 1.44869e-007 -1.45013e-007 -5.92736e-008 1.44872e-007 -1.45019e-007 -5.9254e-008 -2.89744e-007 2.90037e-007 1.18508e-007 1.44872e-007 -1.45019e-007 -5.9254e-008 20.9279 27.974 5.25237 82.0501 -51.1696 56.4953 92.856 -1.05786 14.8654 -160.743 36.0763 136.708 -1.44849e-007 -1.45019e-007 5.93063e-008 -3.94189e-007 4.47913e-007 -3.27159e-008 7.24243e-007 7.25094e-007 -2.96532e-007 -1.44849e-007 -1.45019e-007 5.93063e-008 0.0150151 -9.16869e-005 -8.39428e-008 7.24239e-007 7.25055e-007 -2.96627e-007 -1.44849e-007 -1.45019e-007 5.93063e-008 0.0190276 -0.00119485 -6.20984e-005 7.24235e-007 7.25045e-007 -2.9666e-007 -1.44849e-007 -1.45019e-007 5.93063e-008 0.0122648 -0.00325156 -0.000684034 7.24228e-007 7.25067e-007 -2.9663e-007 -1.44849e-007 -1.45019e-007 5.93063e-008 -3.94189e-007 4.47913e-007 -3.27159e-008 7.24243e-007 7.25094e-007 -2.96532e-007 -139.296 -64.1545 -135.349 -167.429 77.9055 165.31 0.906997 -10.0911 -12.0039 8.16069e-007 2.1783e-007 8.90892e-008 141.351 -64.7286 138.844 168.445 77.0253 -166.26 0.807197 -11.358 13.3309 2.38542e-015 6.36111e-015 6.36111e-015 
0.870329 34.551 14.9921 0 28.9246 -0 0.348182 0.929635 -0.481515 0.704305 1.8563 -0.968863 0.704305 1.85628 -0.968863 -3.40765e-005 0.395075 2.94125e-005 3.34026e-007 0.371393 -2.32437e-007 -21.7986 29.9858 -5.046 -82.0649 -51.0609 -56.4018 -92.7027 -1.10429 -14.8 155.597 34.0113 -129.242 1.44748e-007 -1.45128e-007 -5.92549e-008 8.6849e-007 -8.70767e-007 -3.5553e-007 2.89497e-007 -2.90255e-007 -1.1851e-007 1.44748e-007 -1.45128e-007 -5.92549e-008 -0.0146302 -8.56293e-005 -8.27049e-006 2.89495e-007 -2.9024e-007 -1.18547e-007 1.44748e-007 -1.45128e-007 -5.92549e-008 -0.0186897 -0.00117239 6.50492e-005 -2.40961e-007 -6.02953e-007 -1.03872e-007 1.44748e-007 -1.45128e-007 -5.92549e-008 -0.0122825 -0.00325268 0.000678577 2.8949e-007 -2.90245e-007 -1.18549e-007 1.44748e-007 -1.45128e-007 -5.92549e-008 8.6849e-007 -8.70767e-007 -3.5553e-007 2.89497e-007 -2.90255e-007 -1.1851e-007 20.928 27.974 5.25224 82.0501 -51.1696 56.4953 92.2732 -1.21764 14.9267 -160.057 35.8124 136.717 3.18055e-015 -7.95139e-015 -3.18055e-015 -5.78863e-007 -5.80503e-007 2.37351e-007 4.80012e-031 -1.15295e-014 2.38542e-015 3.18055e-015 -7.95139e-015 -3.18055e-015 0.0150284 -8.71002e-005 2.10982e-006 -1.10348e-032 -3.97569e-016 -1.59028e-015 3.18055e-015 -7.95139e-015 -3.18055e-015 0.0189947 -0.00119004 -6.09523e-005 -3.18055e-015 -1.66979e-014 -2.38542e-015 3.18055e-015 -7.95139e-015 -3.18055e-015 0.012273 -0.00324908 -0.000674331 6.36111e-015 -1.59028e-015 -0 3.18055e-015 -7.95139e-015 -3.18055e-015 -5.78863e-007 -5.80503e-007 2.37351e-007 4.80012e-031 -1.15295e-014 2.38542e-015 -133.929 -64.6358 -130.551 -167.4 77.9321 165.289 0.133892 -10.9515 -10.8803 -1.25144e-007 -1.17074e-006 3.17588e-006 135.821 -65.3291 133.879 168.421 77.0519 -166.245 1.55938 -12.2512 12.2373 -1.59028e-015 4.77083e-015 3.18055e-015 
0.870316 34.546 15.783 0 27.174 -0 0.343457 1.36316 -0.488038 0.698812 2.72322 -0.984662 0.698812 2.7232 -0.984661 1.23222e-005 0.491834 -6.46931e-006 4.17985e-007 0.462395 -1.18511e-007 -21.7986 29.9859 -5.04601 -82.0649 -51.0609 -56.4018 -92.1071 -1.26754 -14.8625 154.945 33.7437 -129.292 -9.54166e-015 5.56597e-015 3.97569e-015 -7.23148e-007 7.26159e-007 2.96266e-007 3.18055e-015 -7.15625e-015 -4.77083e-015 -9.54166e-015 5.56597e-015 3.97569e-015 -0.0145758 -8.6407e-005 3.11921e-006 -9.93129e-032 -7.15625e-015 -7.95139e-016 -9.54166e-015 5.56597e-015 3.97569e-015 -0.0187607 -0.00117498 6.23148e-005 -2.20695e-032 -7.95139e-016 -1.59028e-015 -9.54166e-015 5.56597e-015 3.97569e-015 -0.0121957 -0.00322818 0.000673644 2.64834e-031 -6.36111e-015 2.38542e-015 -9.54166e-015 5.56597e-015 3.97569e-015 -7.23148e-007 7.26159e-007 2.96266e-007 3.18055e-015 -7.15625e-015 -4.77083e-015 20.9281 27.9741 5.25218 82.0501 -51.1696 56.4953 91.6904 -1.37807 14.9864 -159.372 35.5485 136.73 8.07718e-007 -2.73244e-008 -1.19742e-007 1.30129e-006 1.30705e-006 -5.34298e-007 2.89177e-007 2.90455e-007 -1.18733e-007 8.07718e-007 -2.73244e-008 -1.19742e-007 0.0150033 -9.22514e-005 -1.26145e-006 2.89175e-007 2.90439e-007 -1.18771e-007 8.07718e-007 -2.73244e-008 -1.19742e-007 0.0189994 -0.00119169 -5.9967e-005 2.89173e-007 2.90435e-007 -1.18784e-007 8.07718e-007 -2.73244e-008 -1.19742e-007 0.0122327 -0.00323751 -0.00067767 -2.2828e-007 6.07931e-007 -1.17842e-007 8.07718e-007 -2.73244e-008 -1.19742e-007 1.30129e-006 1.30705e-006 -5.34298e-007 2.89177e-007 2.90455e-007 -1.18733e-007 -128.393 -64.9183 -125.584 -167.371 77.9577 165.271 -0.624686 -11.8282 -9.76364 2.2301e-006 1.47189e-006 3.3824e-007 130.062 -65.7213 128.685 168.396 77.0774 -166.232 2.29709 -13.1601 11.1504 -2.18146e-007 -8.16643e-007 9.06759e-008 
0.870296 34.5484 16.5746 0 25.4211 -0 0.33871 1.79682 -0.494463 0.693445 3.59074 -1.00029 0.693446 3.59074 -1.00029 6.4855e-006 0.588475 -1.20842e-005 -3.88265e-008 0.553378 7.0208e-007 -21.7986 29.9859 -5.04601 -82.0649 -51.0609 -56.4018 -91.5115 -1.43143 -14.9234 154.294 33.4765 -129.345 4.33548e-007 -4.35992e-007 -1.77747e-007 1.15613e-006 -1.16265e-006 -4.73991e-007 1.30064e-006 -1.30798e-006 -5.3324e-007 4.33548e-007 -4.35992e-007 -1.77747e-007 -0.0146782 -8.6762e-005 -2.22483e-006 1.30064e-006 -1.30791e-006 -5.33408e-007 4.33548e-007 -4.35992e-007 -1.77747e-007 -0.0187086 -0.00117329 6.27939e-005 1.30063e-006 -1.30789e-006 -5.33466e-007 4.33548e-007 -4.35992e-007 -1.77747e-007 -0.0122278 -0.0032389 0.000672442 1.30062e-006 -1.30793e-006 -5.33416e-007 4.33548e-007 -4.35992e-007 -1.77747e-007 1.15613e-006 -1.16265e-006 -4.73991e-007 1.30064e-006 -1.30798e-006 -5.3324e-007 20.9281 27.9741 5.25215 82.0501 -51.1696 56.4953 91.1077 -1.53913 15.0444 -158.689 35.2847 136.748 -1.01126e-006 -1.01727e-006 4.15746e-007 -8.66797e-007 -8.71942e-007 3.56354e-007 -4.33399e-007 -4.35971e-007 1.78177e-007 -1.01126e-006 -1.01727e-006 4.15746e-007 0.0149795 -9.4582e-005 -2.56128e-007 -4.33396e-007 -4.35948e-007 1.78234e-007 -1.01126e-006 -1.01727e-006 4.15746e-007 0.0189795 -0.00119582 -6.36647e-005 -4.33393e-007 -4.35942e-007 1.78254e-007 -1.01126e-006 -1.01727e-006 4.15746e-007 0.0122104 -0.00323407 -0.000672342 -4.33389e-007 -4.35955e-007 1.78235e-007 -1.01126e-006 -1.01727e-006 4.15746e-007 -8.66797e-007 -8.71942e-007 3.56354e-007 -4.33399e-007 -4.35971e-007 1.78177e-007 -122.771 -64.9935 -120.532 -167.344 77.9825 165.255 -1.3683 -12.7206 -8.65404 1.76556e-031 1.59028e-015 -6.36111e-015 124.163 -65.893 123.352 168.373 77.1021 -166.22 3.0199 -14.0836 10.0704 -2.6686e-006 -1.61399e-007 -1.35859e-007 
0.870271 34.5583 17.3665 0 23.6669 -0 0.333948 2.23087 -0.50078 0.688196 4.45869 -1.01573 0.688196 4.45869 -1.01573 -7.66497e-006 0.685086 6.52787e-006 9.06511e-008 0.644382 6.34015e-008 -21.7986 29.9858 -5.04602 -82.0649 -51.0609 -56.4018 -90.9159 -1.59598 -14.9825 153.645 33.2097 -129.402 2.88814e-007 -2.90849e-007 -1.18486e-007 2.88814e-007 -2.90849e-007 -1.18486e-007 2.88814e-007 -2.90849e-007 -1.18486e-007 2.88814e-007 -2.90849e-007 -1.18486e-007 -0.0146318 -8.65622e-005 -4.61511e-006 2.88812e-007 -2.90834e-007 -1.18523e-007 2.88814e-007 -2.90849e-007 -1.18486e-007 -0.0187288 -0.00117128 5.61766e-005 2.8881e-007 -2.9083e-007 -1.18536e-007 2.88814e-007 -2.90849e-007 -1.18486e-007 -0.0122815 -0.00325141 0.000674425 2.88808e-007 -2.90838e-007 -1.18525e-007 2.88814e-007 -2.90849e-007 -1.18486e-007 2.88814e-007 -2.90849e-007 -1.18486e-007 2.88814e-007 -2.90849e-007 -1.18486e-007 20.928 27.9741 5.2522 82.0501 -51.1696 56.4953 90.5251 -1.70078 15.1008 -158.008 35.0211 136.768 -7.86469e-007 4.28519e-008 9.54507e-008 -1.73219e-006 -1.74498e-006 7.12995e-007 -2.88699e-007 -2.90829e-007 1.18833e-007 -7.86469e-007 4.28519e-008 9.54507e-008 0.0149865 -9.14299e-005 -8.41111e-007 -2.88697e-007 -2.90814e-007 1.18871e-007 -7.86469e-007 4.28519e-008 9.54507e-008 0.0189927 -0.00119485 -6.41478e-005 -2.88695e-007 -2.9081e-007 1.18884e-007 -7.86469e-007 4.28519e-008 9.54507e-008 0.0122378 -0.00324143 -0.000673377 -2.88692e-007 -2.90819e-007 1.18872e-007 -7.86469e-007 4.28519e-008 9.54507e-008 -1.73219e-006 -1.74498e-006 7.12995e-007 -2.88699e-007 -2.90829e-007 1.18833e-007 -117.155 -64.8583 -115.485 -167.318 78.0064 165.24 -2.09649 -13.6276 -7.55168 -3.42566e-006 -3.54393e-006 -6.60538e-007 118.231 -65.8381 117.984 168.351 77.1258 -166.21 3.72737 -15.0211 8.99718 -1.03546e-006 -5.98201e-007 1.96031e-008 
